<svg height="1080" viewBox="0 0 1920 1080" width="1920" xmlns="http://www.w3.org/2000/svg"><path d="m0 0h1920v1080h-1920z" fill="#78a2b3"/><g stroke-linecap="round" stroke-linejoin="round"><path d="m186.8 1080c45.5-56.9 97.5-111.4 155.3-162.6 72.4-64.2 154.6-124.1 244.3-177.9 173.7-104.2 373.5-185.3 593.8-241.2 221.6-56.2 456.1-84.7 696.9-84.7 14.3 0 28.7.1 43 .3" fill="none" stroke="#ff00e6" stroke-miterlimit="10" stroke-width="12.3735"/><path d="m267.9 1080c35.8-41.2 75.2-81 118-119 69.5-61.7 148.5-119.2 234.8-170.9 168.3-100.9 362.1-179.6 576.1-233.9 216.2-54.8 445.1-82.6 680.3-82.6 14.3 0 28.7.1 43 .3" fill="none" stroke="#9500ff" stroke-miterlimit="10" stroke-width="12.3735"/><path d="m351.7 1080c24.5-25.8 50.5-51 78-75.4 66.5-59.1 142.4-114.2 225.3-164 162.8-97.6 350.7-173.8 558.4-226.5 210.8-53.5 434.1-80.6 663.6-80.6 14.3 0 28.7.1 43 .3" fill="none" stroke="#0040ff" stroke-miterlimit="10" stroke-width="12.3735"/><path d="m439 1080c11.2-10.7 22.6-21.3 34.4-31.7 63.6-56.5 136.2-109.3 215.8-157 157.3-94.3 339.2-168.1 540.7-219.2 205.4-52.1 423.1-78.5 647-78.5 14.3 0 28.7.1 43 .3" fill="none" stroke="#2bff00" stroke-miterlimit="10" stroke-width="12.3735"/><path d="m530.9 1080c57.4-49.4 122.1-95.9 192.7-138.2 151.8-91.1 327.8-162.3 523.1-211.8 200-50.7 412.1-76.4 630.4-76.4 14.3 0 28.7.1 43 .3" fill="none" stroke="#fff700" stroke-miterlimit="10" stroke-width="12.3735"/><path d="m628.5 1080c40.2-30.7 83.5-60.1 129.4-87.6 146.4-87.8 316.4-156.6 505.4-204.5 194.6-49.3 401.1-74.4 613.8-74.4 14.4 0 28.7.1 43 .4" fill="none" stroke="#ff8000" stroke-miterlimit="10" stroke-width="12.3735"/><path d="m733.8 1080c280.9-188.1 689-306.4 1143.3-306.4 14.4 0 28.7.1 43 .4" fill="none" stroke="#f00" stroke-miterlimit="10" stroke-width="12.3735"/><path d="m1176.2 333.6c2.1 24.2 4.6 48.6 7.4 73.3 1.1 13.6 2.5 27.5 4.3 41.6.6 4.8 1.2 9.3 1.7 13.5l-14.1 16.1c-3.3 4.6-6.3 9.3-9 14.2-5.7 9.8-10.2 19.9-13.5 30.5-15.6 50.3-1.4 100.9 42.6 151.8-1.9 13.4-2.4 46.2 14 66.8 8.1 10.1 16.3 19 24.7 26.6l26.9-32.3c45.6 34.8 111.6 65.6 198.1 92.5 43.1 13.7 81.6 23.8 115.6 30.1 7.5 32.2 24.3 53.2 50.5 63 13.6 5.3 25.9 7.1 37 5.2-1.3-18.2-7.8-34.6-19.5-49.4l-17.1-16.1c12.9-2.5 23.4-7.4 31.4-14.5 7-6.8 11.4-14.2 13.3-22.4-25.9-17.7-49.2-23-69.9-15.8-10.3 3.8-17.9 9.2-23 16.2-75.7-25.6-129.4-72.9-161-141.8-15.9-34.4-24.5-72.5-25.9-114.2s-20.8-74.6-58.1-98.6c-37.3-24.1-70-31.1-98.2-21.2l-16.3-33.8-17.1-33.2z" fill="#78a2b3" stroke="#fff" stroke-width="12"/></g><path d="m1228.5 568.6c-1.3 2.7-1.3 5.6.1 8.7.8 3.3 2.6 5.6 5.3 6.9s5.8 1.4 9.3.2c2.9-1 5-2.9 6.3-5.6s1.6-5.7.8-9c-1.4-3.1-3.4-5.3-6.2-6.6-2.7-1.3-5.5-1.5-8.4-.5-3.5 1.2-5.9 3.2-7.2 5.9z" fill="#fff"/></svg>